# xmcd
#
# Track frame offsets:
#	150
#	27209
#	71309
#	99791
#	124640
#	146827
#	179954
#	203121
#	233936
#
# Disc length: 4438 seconds
#
# Revision: 0
# Processed by: cddbd v1.5.1PL0 Copyright (c) Steve Scherf et al.
# Submitted via: dBpowerAMP V4.0
#
DISCID=7c115409
DTITLE=Sister Sledge - Sister Sledge Live
DYEAR=1900
DGENRE=Rhythmic Soul
TTITLE0=Everybody Dance
TTITLE1=Thinking of You
TTITLE2=He's the Greatest Dancer
TTITLE3=True Love
TTITLE4=Frankie
TTITLE5=Brother Brother Stop
TTITLE6=Love of the Lord
TTITLE7=We Are Family
TTITLE8=Medley: Lost in Music, Melody is Good to Me, Lost In Music (Reprise)
EXTD=
EXTT0=
EXTT1=
EXTT2=
EXTT3=
EXTT4=
EXTT5=
EXTT6=
EXTT7=
EXTT8=
PLAYORDER=
